<svg xmlns="http://www.w3.org/2000/svg" viewBox="0 0 1800 1240" font-family="Segoe UI, Inter, Arial, sans-serif">
<defs>
<linearGradient id="bg" x1="0" y1="0" x2="1" y2="1"><stop offset="0" stop-color="#07111f"/><stop offset="1" stop-color="#0f172a"/></linearGradient>
<filter id="shadow" x="-20%" y="-20%" width="140%" height="140%"><feDropShadow dx="0" dy="8" stdDeviation="10" flood-color="#000" flood-opacity=".30"/></filter>
<marker id="arrow" viewBox="0 0 10 10" refX="8.5" refY="5" markerWidth="8" markerHeight="8" orient="auto-start-reverse"><path d="M0,0 L10,5 L0,10 z" fill="#94a3b8"/></marker>
<style>.card{filter:url(#shadow)} .header{letter-spacing:.07em;text-transform:uppercase}</style>
</defs>
<rect width="1800" height="1240" fill="url(#bg)"/>
<rect x="26" y="26" width="1748" height="1188" rx="30" fill="none" stroke="#1f2937" stroke-width="1.4"/>

<text x="900.0" y="64" font-size="32" fill="#f8fafc" font-weight="780" text-anchor="middle" >Cyber Defense KQL Workshop — Expected Key Findings</text>
<text x="900.0" y="96" font-size="15" fill="#94a3b8" font-weight="400" text-anchor="middle" >Modern evidence map for instructor debriefs, student recap slides, and printed handouts</text>
<rect x="70" y="130" width="1660" height="86" rx="24" fill="#0b1220" stroke="#263449" stroke-width="1.3" />
<text x="98" y="162" font-size="13" fill="#cbd5e1" font-weight="750" text-anchor="start" class="header">Investigation spine</text>
<rect x="285" y="150" width="220" height="46" rx="23" fill="#3b2108" stroke="#f97316" stroke-width="1.5" class="card"/>
<text x="395" y="170" font-size="13" fill="#fed7aa" font-weight="750" text-anchor="middle" >Risky sign-in</text>
<text x="395" y="188" font-size="11" fill="#94a3b8" font-weight="500" text-anchor="middle" >Victor Alvarez</text>
<path d="M505 173 L547 173" fill="none" stroke="#94a3b8" stroke-width="2.1" marker-end="url(#arrow)"/>
<rect x="573" y="150" width="220" height="46" rx="23" fill="#2e1b52" stroke="#a78bfa" stroke-width="1.5" class="card"/>
<text x="683" y="170" font-size="13" fill="#ddd6fe" font-weight="750" text-anchor="middle" >OAuth / Graph</text>
<text x="683" y="188" font-size="11" fill="#94a3b8" font-weight="500" text-anchor="middle" >Consent + API access</text>
<path d="M793 173 L835 173" fill="none" stroke="#94a3b8" stroke-width="2.1" marker-end="url(#arrow)"/>
<rect x="861" y="150" width="220" height="46" rx="23" fill="#0b3422" stroke="#22c55e" stroke-width="1.5" class="card"/>
<text x="971" y="170" font-size="13" fill="#bbf7d0" font-weight="750" text-anchor="middle" >Endpoint pivot</text>
<text x="971" y="188" font-size="11" fill="#94a3b8" font-weight="500" text-anchor="middle" >WIN11-04</text>
<path d="M1081 173 L1123 173" fill="none" stroke="#94a3b8" stroke-width="2.1" marker-end="url(#arrow)"/>
<rect x="1149" y="150" width="220" height="46" rx="23" fill="#3b0d17" stroke="#fb7185" stroke-width="1.5" class="card"/>
<text x="1259" y="170" font-size="13" fill="#ffe4e6" font-weight="750" text-anchor="middle" >Credential access</text>
<text x="1259" y="188" font-size="11" fill="#94a3b8" font-weight="500" text-anchor="middle" >Dumping + harvesting</text>
<path d="M1369 173 L1411 173" fill="none" stroke="#94a3b8" stroke-width="2.1" marker-end="url(#arrow)"/>
<rect x="1437" y="150" width="220" height="46" rx="23" fill="#082f49" stroke="#3b82f6" stroke-width="1.5" class="card"/>
<text x="1547" y="170" font-size="13" fill="#bfdbfe" font-weight="750" text-anchor="middle" >Hybrid lateral movement</text>
<text x="1547" y="188" font-size="11" fill="#94a3b8" font-weight="500" text-anchor="middle" >svc_sql → AADCONNECT01</text>
<rect x="70" y="290" width="455" height="370" rx="24" fill="#0b1220" stroke="#f97316" stroke-width="1.6" class="card"/>
<rect x="88" y="308" width="52" height="52" rx="18" fill="#3b2108" stroke="#f97316" stroke-width="1.4" />
<text x="114" y="342" font-size="21" fill="#fed7aa" font-weight="800" text-anchor="middle" >01</text>
<text x="155" y="329" font-size="21" fill="#f8fafc" font-weight="760" text-anchor="start" >Cloud Identity Foothold</text>
<text x="155" y="352" font-size="12" fill="#94a3b8" font-weight="550" text-anchor="start" >finding family → evidence pivots</text>
<rect x="98" y="374" width="19" height="19" rx="10" fill="#111827" stroke="#f97316" stroke-width="1" />
<text x="107.5" y="388" font-size="14" fill="#fed7aa" font-weight="800" text-anchor="middle" >•</text>
<text x="128" y="390" font-size="12.5" fill="#e2e8f0" font-weight="400" text-anchor="start" >High-risk sign-in for Victor Alvarez</text>
<rect x="98" y="404" width="19" height="19" rx="10" fill="#111827" stroke="#f97316" stroke-width="1" />
<text x="107.5" y="418" font-size="14" fill="#fed7aa" font-weight="800" text-anchor="middle" >•</text>
<text x="128" y="420" font-size="12.5" fill="#e2e8f0" font-weight="400" text-anchor="start" >OAuth consent and service-principal credential</text>
<text x="128" y="436" font-size="12.5" fill="#e2e8f0" font-weight="400" text-anchor="start" >creation</text>
<rect x="98" y="450" width="19" height="19" rx="10" fill="#111827" stroke="#f97316" stroke-width="1" />
<text x="107.5" y="464" font-size="14" fill="#fed7aa" font-weight="800" text-anchor="middle" >•</text>
<text x="128" y="466" font-size="12.5" fill="#e2e8f0" font-weight="400" text-anchor="start" >App-only Graph access, mailbox/file reads, directory</text>
<text x="128" y="482" font-size="12.5" fill="#e2e8f0" font-weight="400" text-anchor="start" >enumeration</text>
<line x1="98" y1="528" x2="497" y2="528" stroke="#263449" stroke-width="1"/>
<text x="98" y="552" font-size="12" fill="#cbd5e1" font-weight="750" text-anchor="start" class="header">Evidence tables</text>
<rect x="98" y="570" width="92" height="24" rx="12" fill="#1f2937" stroke="#334155" stroke-width="1" />
<text x="144.0" y="586" font-size="10.8" fill="#e2e8f0" font-weight="650" text-anchor="middle" >SigninLogs</text>
<rect x="198" y="570" width="155" height="24" rx="12" fill="#1f2937" stroke="#334155" stroke-width="1" />
<text x="275.5" y="586" font-size="10.8" fill="#e2e8f0" font-weight="650" text-anchor="middle" >EntraIdSignInEvents</text>
<rect x="361" y="570" width="85" height="24" rx="12" fill="#1f2937" stroke="#334155" stroke-width="1" />
<text x="403.5" y="586" font-size="10.8" fill="#e2e8f0" font-weight="650" text-anchor="middle" >AuditLogs</text>
<rect x="98" y="600" width="120" height="24" rx="12" fill="#1f2937" stroke="#334155" stroke-width="1" />
<text x="158.0" y="616" font-size="10.8" fill="#e2e8f0" font-weight="650" text-anchor="middle" >CloudAppEvents</text>
<rect x="226" y="600" width="155" height="24" rx="12" fill="#1f2937" stroke="#334155" stroke-width="1" />
<text x="303.5" y="616" font-size="10.8" fill="#e2e8f0" font-weight="650" text-anchor="middle" >GraphApiAuditEvents</text>
<rect x="98" y="630" width="204" height="24" rx="12" fill="#1f2937" stroke="#334155" stroke-width="1" />
<text x="200.0" y="646" font-size="10.8" fill="#e2e8f0" font-weight="650" text-anchor="middle" >MicrosoftGraphActivityLogs</text>
<rect x="535" y="290" width="455" height="370" rx="24" fill="#0b1220" stroke="#22c55e" stroke-width="1.6" class="card"/>
<rect x="553" y="308" width="52" height="52" rx="18" fill="#0b3422" stroke="#22c55e" stroke-width="1.4" />
<text x="579" y="342" font-size="21" fill="#bbf7d0" font-weight="800" text-anchor="middle" >02</text>
<text x="620" y="329" font-size="21" fill="#f8fafc" font-weight="760" text-anchor="start" >Endpoint Credential Access</text>
<text x="620" y="352" font-size="12" fill="#94a3b8" font-weight="550" text-anchor="start" >finding family → evidence pivots</text>
<rect x="563" y="374" width="19" height="19" rx="10" fill="#111827" stroke="#22c55e" stroke-width="1" />
<text x="572.5" y="388" font-size="14" fill="#bbf7d0" font-weight="800" text-anchor="middle" >•</text>
<text x="593" y="390" font-size="12.5" fill="#e2e8f0" font-weight="400" text-anchor="start" >WIN11-04 staging against cdn.update-check.example</text>
<rect x="563" y="404" width="19" height="19" rx="10" fill="#111827" stroke="#22c55e" stroke-width="1" />
<text x="572.5" y="418" font-size="14" fill="#bbf7d0" font-weight="800" text-anchor="middle" >•</text>
<text x="593" y="420" font-size="12.5" fill="#e2e8f0" font-weight="400" text-anchor="start" >Registry credential access and SAM hive save</text>
<rect x="563" y="434" width="19" height="19" rx="10" fill="#111827" stroke="#22c55e" stroke-width="1" />
<text x="572.5" y="448" font-size="14" fill="#bbf7d0" font-weight="800" text-anchor="middle" >•</text>
<text x="593" y="450" font-size="12.5" fill="#e2e8f0" font-weight="400" text-anchor="start" >Browser credential collection, LSASS dump, password-</text>
<text x="593" y="466" font-size="12.5" fill="#e2e8f0" font-weight="400" text-anchor="start" >store harvesting</text>
<line x1="563" y1="528" x2="962" y2="528" stroke="#263449" stroke-width="1"/>
<text x="563" y="552" font-size="12" fill="#cbd5e1" font-weight="750" text-anchor="start" class="header">Evidence tables</text>
<rect x="563" y="570" width="155" height="24" rx="12" fill="#1f2937" stroke="#334155" stroke-width="1" />
<text x="640.5" y="586" font-size="10.8" fill="#e2e8f0" font-weight="650" text-anchor="middle" >DeviceNetworkEvents</text>
<rect x="726" y="570" width="162" height="24" rx="12" fill="#1f2937" stroke="#334155" stroke-width="1" />
<text x="807.0" y="586" font-size="10.8" fill="#e2e8f0" font-weight="650" text-anchor="middle" >DeviceRegistryEvents</text>
<rect x="563" y="600" width="155" height="24" rx="12" fill="#1f2937" stroke="#334155" stroke-width="1" />
<text x="640.5" y="616" font-size="10.8" fill="#e2e8f0" font-weight="650" text-anchor="middle" >DeviceProcessEvents</text>
<rect x="726" y="600" width="134" height="24" rx="12" fill="#1f2937" stroke="#334155" stroke-width="1" />
<text x="793.0" y="616" font-size="10.8" fill="#e2e8f0" font-weight="650" text-anchor="middle" >DeviceFileEvents</text>
<rect x="868" y="600" width="85" height="24" rx="12" fill="#1f2937" stroke="#334155" stroke-width="1" />
<text x="910.5" y="616" font-size="10.8" fill="#e2e8f0" font-weight="650" text-anchor="middle" >AlertInfo</text>
<rect x="1000" y="290" width="455" height="370" rx="24" fill="#0b1220" stroke="#3b82f6" stroke-width="1.6" class="card"/>
<rect x="1018" y="308" width="52" height="52" rx="18" fill="#082f49" stroke="#3b82f6" stroke-width="1.4" />
<text x="1044" y="342" font-size="21" fill="#bfdbfe" font-weight="800" text-anchor="middle" >03</text>
<text x="1085" y="329" font-size="21" fill="#f8fafc" font-weight="760" text-anchor="start" >Hybrid Identity Expansion</text>
<text x="1085" y="352" font-size="12" fill="#94a3b8" font-weight="550" text-anchor="start" >finding family → evidence pivots</text>
<rect x="1028" y="374" width="19" height="19" rx="10" fill="#111827" stroke="#3b82f6" stroke-width="1" />
<text x="1037.5" y="388" font-size="14" fill="#bfdbfe" font-weight="800" text-anchor="middle" >•</text>
<text x="1058" y="390" font-size="12.5" fill="#e2e8f0" font-weight="400" text-anchor="start" >Kerberoasting via LDAP SPN search and Kerberos</text>
<text x="1058" y="406" font-size="12.5" fill="#e2e8f0" font-weight="400" text-anchor="start" >activity</text>
<rect x="1028" y="420" width="19" height="19" rx="10" fill="#111827" stroke="#3b82f6" stroke-width="1" />
<text x="1037.5" y="434" font-size="14" fill="#bfdbfe" font-weight="800" text-anchor="middle" >•</text>
<text x="1058" y="436" font-size="12.5" fill="#e2e8f0" font-weight="400" text-anchor="start" >svc_sql remote logon to AADCONNECT01</text>
<rect x="1028" y="450" width="19" height="19" rx="10" fill="#111827" stroke="#3b82f6" stroke-width="1" />
<text x="1037.5" y="464" font-size="14" fill="#bfdbfe" font-weight="800" text-anchor="middle" >•</text>
<text x="1058" y="466" font-size="12.5" fill="#e2e8f0" font-weight="400" text-anchor="start" >TVM rows explain exposure, inventory, evidence paths,</text>
<text x="1058" y="482" font-size="12.5" fill="#e2e8f0" font-weight="400" text-anchor="start" >and configuration gaps</text>
<line x1="1028" y1="528" x2="1427" y2="528" stroke="#263449" stroke-width="1"/>
<text x="1028" y="552" font-size="12" fill="#cbd5e1" font-weight="750" text-anchor="start" class="header">Evidence tables</text>
<rect x="1028" y="570" width="155" height="24" rx="12" fill="#1f2937" stroke="#334155" stroke-width="1" />
<text x="1105.5" y="586" font-size="10.8" fill="#e2e8f0" font-weight="650" text-anchor="middle" >IdentityQueryEvents</text>
<rect x="1191" y="570" width="155" height="24" rx="12" fill="#1f2937" stroke="#334155" stroke-width="1" />
<text x="1268.5" y="586" font-size="10.8" fill="#e2e8f0" font-weight="650" text-anchor="middle" >IdentityLogonEvents</text>
<rect x="1028" y="600" width="141" height="24" rx="12" fill="#1f2937" stroke="#334155" stroke-width="1" />
<text x="1098.5" y="616" font-size="10.8" fill="#e2e8f0" font-weight="650" text-anchor="middle" >DeviceLogonEvents</text>
<rect x="1177" y="600" width="92" height="24" rx="12" fill="#1f2937" stroke="#334155" stroke-width="1" />
<text x="1223.0" y="616" font-size="10.8" fill="#e2e8f0" font-weight="650" text-anchor="middle" >TVM tables</text>
<rect x="1028" y="630" width="246" height="24" rx="12" fill="#1f2937" stroke="#334155" stroke-width="1" />
<text x="1151.0" y="646" font-size="10.8" fill="#e2e8f0" font-weight="650" text-anchor="middle" >AdditionalData.tvmEvidenceTables</text>
<rect x="70" y="690" width="455" height="370" rx="24" fill="#0b1220" stroke="#38bdf8" stroke-width="1.6" class="card"/>
<rect x="88" y="708" width="52" height="52" rx="18" fill="#0c273f" stroke="#38bdf8" stroke-width="1.4" />
<text x="114" y="742" font-size="21" fill="#bae6fd" font-weight="800" text-anchor="middle" >04</text>
<text x="155" y="729" font-size="21" fill="#f8fafc" font-weight="760" text-anchor="start" >SOC Correlation Layer</text>
<text x="155" y="752" font-size="12" fill="#94a3b8" font-weight="550" text-anchor="start" >finding family → evidence pivots</text>
<rect x="98" y="774" width="19" height="19" rx="10" fill="#111827" stroke="#38bdf8" stroke-width="1" />
<text x="107.5" y="788" font-size="14" fill="#bae6fd" font-weight="800" text-anchor="middle" >•</text>
<text x="128" y="790" font-size="12.5" fill="#e2e8f0" font-weight="400" text-anchor="start" >SecurityIncident groups generic SOC-style incidents</text>
<rect x="98" y="804" width="19" height="19" rx="10" fill="#111827" stroke="#38bdf8" stroke-width="1" />
<text x="107.5" y="818" font-size="14" fill="#bae6fd" font-weight="800" text-anchor="middle" >•</text>
<text x="128" y="820" font-size="12.5" fill="#e2e8f0" font-weight="400" text-anchor="start" >AlertIds join incidents back to AlertInfo and</text>
<text x="128" y="836" font-size="12.5" fill="#e2e8f0" font-weight="400" text-anchor="start" >AlertEvidence</text>
<rect x="98" y="850" width="19" height="19" rx="10" fill="#111827" stroke="#38bdf8" stroke-width="1" />
<text x="107.5" y="864" font-size="14" fill="#bae6fd" font-weight="800" text-anchor="middle" >•</text>
<text x="128" y="866" font-size="12.5" fill="#e2e8f0" font-weight="400" text-anchor="start" >Timeline pivots by behavior, timestamp, entity, MITRE</text>
<text x="128" y="882" font-size="12.5" fill="#e2e8f0" font-weight="400" text-anchor="start" >technique, and evidence paths</text>
<line x1="98" y1="928" x2="497" y2="928" stroke="#263449" stroke-width="1"/>
<text x="98" y="952" font-size="12" fill="#cbd5e1" font-weight="750" text-anchor="start" class="header">Evidence tables</text>
<rect x="98" y="970" width="134" height="24" rx="12" fill="#1f2937" stroke="#334155" stroke-width="1" />
<text x="165.0" y="986" font-size="10.8" fill="#e2e8f0" font-weight="650" text-anchor="middle" >SecurityIncident</text>
<rect x="240" y="970" width="78" height="24" rx="12" fill="#1f2937" stroke="#334155" stroke-width="1" />
<text x="279.0" y="986" font-size="10.8" fill="#e2e8f0" font-weight="650" text-anchor="middle" >AlertIds</text>
<rect x="326" y="970" width="85" height="24" rx="12" fill="#1f2937" stroke="#334155" stroke-width="1" />
<text x="368.5" y="986" font-size="10.8" fill="#e2e8f0" font-weight="650" text-anchor="middle" >AlertInfo</text>
<rect x="98" y="1000" width="113" height="24" rx="12" fill="#1f2937" stroke="#334155" stroke-width="1" />
<text x="154.5" y="1016" font-size="10.8" fill="#e2e8f0" font-weight="650" text-anchor="middle" >AlertEvidence</text>
<rect x="219" y="1000" width="78" height="24" rx="12" fill="#1f2937" stroke="#334155" stroke-width="1" />
<text x="258.0" y="1016" font-size="10.8" fill="#e2e8f0" font-weight="650" text-anchor="middle" >Entities</text>
<rect x="535" y="690" width="455" height="370" rx="24" fill="#0b1220" stroke="#a78bfa" stroke-width="1.6" class="card"/>
<rect x="553" y="708" width="52" height="52" rx="18" fill="#2e1b52" stroke="#a78bfa" stroke-width="1.4" />
<text x="579" y="742" font-size="21" fill="#ddd6fe" font-weight="800" text-anchor="middle" >05</text>
<text x="620" y="729" font-size="21" fill="#f8fafc" font-weight="760" text-anchor="start" >Linux / Oracle Bonus Branch</text>
<text x="620" y="752" font-size="12" fill="#94a3b8" font-weight="550" text-anchor="start" >finding family → evidence pivots</text>
<rect x="563" y="774" width="19" height="19" rx="10" fill="#111827" stroke="#a78bfa" stroke-width="1" />
<text x="572.5" y="788" font-size="14" fill="#ddd6fe" font-weight="800" text-anchor="middle" >•</text>
<text x="593" y="790" font-size="12.5" fill="#e2e8f0" font-weight="400" text-anchor="start" >Ubuntu SSH, sudo, auditd, CUPS/IPP, .so load, and</text>
<text x="593" y="806" font-size="12.5" fill="#e2e8f0" font-weight="400" text-anchor="start" >package/CVE context</text>
<rect x="563" y="820" width="19" height="19" rx="10" fill="#111827" stroke="#a78bfa" stroke-width="1" />
<text x="572.5" y="834" font-size="14" fill="#ddd6fe" font-weight="800" text-anchor="middle" >•</text>
<text x="593" y="836" font-size="12.5" fill="#e2e8f0" font-weight="400" text-anchor="start" >Python/Go tooling reaches Oracle TNS on TCP/1521</text>
<rect x="563" y="850" width="19" height="19" rx="10" fill="#111827" stroke="#a78bfa" stroke-width="1" />
<text x="572.5" y="864" font-size="14" fill="#ddd6fe" font-weight="800" text-anchor="middle" >•</text>
<text x="593" y="866" font-size="12.5" fill="#e2e8f0" font-weight="400" text-anchor="start" >Synthetic sensitive export under /tmp/.oracle</text>
<line x1="563" y1="928" x2="962" y2="928" stroke="#263449" stroke-width="1"/>
<text x="563" y="952" font-size="12" fill="#cbd5e1" font-weight="750" text-anchor="start" class="header">Evidence tables</text>
<rect x="563" y="970" width="141" height="24" rx="12" fill="#1f2937" stroke="#334155" stroke-width="1" />
<text x="633.5" y="986" font-size="10.8" fill="#e2e8f0" font-weight="650" text-anchor="middle" >DeviceLogonEvents</text>
<rect x="712" y="970" width="155" height="24" rx="12" fill="#1f2937" stroke="#334155" stroke-width="1" />
<text x="789.5" y="986" font-size="10.8" fill="#e2e8f0" font-weight="650" text-anchor="middle" >DeviceProcessEvents</text>
<rect x="563" y="1000" width="106" height="24" rx="12" fill="#1f2937" stroke="#334155" stroke-width="1" />
<text x="616.0" y="1016" font-size="10.8" fill="#e2e8f0" font-weight="650" text-anchor="middle" >DeviceEvents</text>
<rect x="677" y="1000" width="169" height="24" rx="12" fill="#1f2937" stroke="#334155" stroke-width="1" />
<text x="761.5" y="1016" font-size="10.8" fill="#e2e8f0" font-weight="650" text-anchor="middle" >DeviceImageLoadEvents</text>
<rect x="563" y="1030" width="155" height="24" rx="12" fill="#1f2937" stroke="#334155" stroke-width="1" />
<text x="640.5" y="1046" font-size="10.8" fill="#e2e8f0" font-weight="650" text-anchor="middle" >DeviceNetworkEvents</text>
<rect x="726" y="1030" width="134" height="24" rx="12" fill="#1f2937" stroke="#334155" stroke-width="1" />
<text x="793.0" y="1046" font-size="10.8" fill="#e2e8f0" font-weight="650" text-anchor="middle" >DeviceFileEvents</text>
<rect x="868" y="1030" width="92" height="24" rx="12" fill="#1f2937" stroke="#334155" stroke-width="1" />
<text x="914.0" y="1046" font-size="10.8" fill="#e2e8f0" font-weight="650" text-anchor="middle" >TVM tables</text>
<rect x="1000" y="690" width="730" height="370" rx="24" fill="#0b1220" stroke="#475569" stroke-width="1.5" class="card"/>
<text x="1030" y="730" font-size="22" fill="#f8fafc" font-weight="760" text-anchor="start" >Instructor debrief lens</text>
<text x="1030" y="755" font-size="13" fill="#94a3b8" font-weight="400" text-anchor="start" >Use this as the summary slide after students complete the hunt.</text>
<text x="1030" y="795" font-size="13" fill="#cbd5e1" font-weight="750" text-anchor="start" class="header">Discussion prompts</text>
<rect x="1030" y="804" width="20" height="20" rx="10" fill="#111827" stroke="#38bdf8" stroke-width="1" />
<text x="1040" y="819" font-size="15" fill="#bae6fd" font-weight="700" text-anchor="middle" >•</text>
<text x="1060" y="822" font-size="12.3" fill="#e2e8f0" font-weight="400" text-anchor="start" >Which table gave the earliest signal?</text>
<rect x="1030" y="847" width="20" height="20" rx="10" fill="#111827" stroke="#38bdf8" stroke-width="1" />
<text x="1040" y="862" font-size="15" fill="#bae6fd" font-weight="700" text-anchor="middle" >•</text>
<text x="1060" y="865" font-size="12.3" fill="#e2e8f0" font-weight="400" text-anchor="start" >Which activity required identity telemetry vs.</text>
<text x="1060" y="881" font-size="12.3" fill="#e2e8f0" font-weight="400" text-anchor="start" >endpoint telemetry?</text>
<rect x="1030" y="890" width="20" height="20" rx="10" fill="#111827" stroke="#38bdf8" stroke-width="1" />
<text x="1040" y="905" font-size="15" fill="#bae6fd" font-weight="700" text-anchor="middle" >•</text>
<text x="1060" y="908" font-size="12.3" fill="#e2e8f0" font-weight="400" text-anchor="start" >How did SecurityIncident change the</text>
<text x="1060" y="924" font-size="12.3" fill="#e2e8f0" font-weight="400" text-anchor="start" >investigation?</text>
<rect x="1030" y="933" width="20" height="20" rx="10" fill="#111827" stroke="#38bdf8" stroke-width="1" />
<text x="1040" y="948" font-size="15" fill="#bae6fd" font-weight="700" text-anchor="middle" >•</text>
<text x="1060" y="951" font-size="12.3" fill="#e2e8f0" font-weight="400" text-anchor="start" >Which TVM rows explain exposure rather than</text>
<text x="1060" y="967" font-size="12.3" fill="#e2e8f0" font-weight="400" text-anchor="start" >attacker activity?</text>
<text x="1390" y="795" font-size="13" fill="#cbd5e1" font-weight="750" text-anchor="start" class="header">High-signal ATT&amp;CK coverage</text>
<rect x="1390" y="820" width="96" height="40" rx="14" fill="#111827" stroke="#a78bfa" stroke-width="1.1" />
<text x="1400" y="837" font-size="10.2" fill="#fef3c7" font-weight="760" text-anchor="start" >T1528</text>
<text x="1400" y="853" font-size="9.6" fill="#cbd5e1" font-weight="500" text-anchor="start" >App token</text>
<rect x="1496" y="820" width="96" height="40" rx="14" fill="#111827" stroke="#fb7185" stroke-width="1.1" />
<text x="1506" y="837" font-size="10.2" fill="#fef3c7" font-weight="760" text-anchor="start" >T1098.001</text>
<text x="1506" y="853" font-size="9.6" fill="#cbd5e1" font-weight="500" text-anchor="start" >Cloud creds</text>
<rect x="1602" y="820" width="96" height="40" rx="14" fill="#111827" stroke="#a78bfa" stroke-width="1.1" />
<text x="1612" y="837" font-size="10.2" fill="#fef3c7" font-weight="760" text-anchor="start" >T1550.001</text>
<text x="1612" y="853" font-size="9.6" fill="#cbd5e1" font-weight="500" text-anchor="start" >App-only token</text>
<rect x="1390" y="870" width="96" height="40" rx="14" fill="#111827" stroke="#a78bfa" stroke-width="1.1" />
<text x="1400" y="887" font-size="10.2" fill="#fef3c7" font-weight="760" text-anchor="start" >T1558.003</text>
<text x="1400" y="903" font-size="9.6" fill="#cbd5e1" font-weight="500" text-anchor="start" >Kerberoast</text>
<rect x="1496" y="870" width="96" height="40" rx="14" fill="#111827" stroke="#fb7185" stroke-width="1.1" />
<text x="1506" y="887" font-size="10.2" fill="#fef3c7" font-weight="760" text-anchor="start" >T1003.001</text>
<text x="1506" y="903" font-size="9.6" fill="#cbd5e1" font-weight="500" text-anchor="start" >LSASS dump</text>
<rect x="1602" y="870" width="96" height="40" rx="14" fill="#111827" stroke="#a78bfa" stroke-width="1.1" />
<text x="1612" y="887" font-size="10.2" fill="#fef3c7" font-weight="760" text-anchor="start" >T1555</text>
<text x="1612" y="903" font-size="9.6" fill="#cbd5e1" font-weight="500" text-anchor="start" >Password stores</text>
<rect x="1390" y="920" width="96" height="40" rx="14" fill="#111827" stroke="#fb7185" stroke-width="1.1" />
<text x="1400" y="937" font-size="10.2" fill="#fef3c7" font-weight="760" text-anchor="start" >T1078.002</text>
<text x="1400" y="953" font-size="9.6" fill="#cbd5e1" font-weight="500" text-anchor="start" >Domain accounts</text>
<rect x="1496" y="920" width="96" height="40" rx="14" fill="#111827" stroke="#fb7185" stroke-width="1.1" />
<text x="1506" y="937" font-size="10.2" fill="#fef3c7" font-weight="760" text-anchor="start" >T1021.006</text>
<text x="1506" y="953" font-size="9.6" fill="#cbd5e1" font-weight="500" text-anchor="start" >WinRM</text>
<rect x="1602" y="920" width="96" height="40" rx="14" fill="#111827" stroke="#a78bfa" stroke-width="1.1" />
<text x="1612" y="937" font-size="10.2" fill="#fef3c7" font-weight="760" text-anchor="start" >T1548.003</text>
<text x="1612" y="953" font-size="9.6" fill="#cbd5e1" font-weight="500" text-anchor="start" >sudo / setuid</text>
<rect x="70" y="1112" width="1660" height="68" rx="24" fill="#111827" stroke="#334155" stroke-width="1.2" />
<text x="100" y="1144" font-size="13" fill="#cbd5e1" font-weight="750" text-anchor="start" class="header">Design note</text>
<text x="215" y="1144" font-size="14" fill="#cbd5e1" font-weight="400" text-anchor="start" >This replaces a dense two-column table with grouped evidence cards, table chips, and a debrief panel so students can see the investigation path without drowning in wide schemas.</text>
<text x="215" y="1168" font-size="12" fill="#94a3b8" font-weight="400" text-anchor="start" >Best use: instructor guide, recap slide, or printed handout after the lab topology diagram.</text>
</svg>